<?xml version="1.0" encoding="utf-8"?>
<!-- Generator: Adobe Illustrator 24.0.2, SVG Export Plug-In . SVG Version: 6.00 Build 0)  -->
<svg version="1.1" id="Layer_1" xmlns="http://www.w3.org/2000/svg" xmlns:xlink="http://www.w3.org/1999/xlink" x="0px" y="0px"
	 viewBox="0 0 56.9 53.2" style="enable-background:new 0 0 56.9 53.2;" xml:space="preserve">
<style type="text/css">
	.st0{fill:none;}
	.st1{fill:#A9B3AF;}
</style>
<rect x="0" y="0.2" class="st0" width="56.8" height="53.1"/>
<path class="st1" d="M8.7,18.2c0.2-2.9,0.9-5.3,2.2-7.2c1.3-1.9,2.9-3.4,4.8-4.6c2-1.2,4.1-2,6.6-2.4c2.5-0.5,5-0.8,7.4-0.8
	c2.2,0,4.5,0.2,6.8,0.5c2.3,0.3,4.4,0.9,6.3,1.8c1.9,0.9,3.5,2.2,4.7,3.9c1.2,1.6,1.8,3.8,1.8,6.5v23.2c0,2,0.1,3.9,0.3,5.8
	c0.2,1.8,0.6,3.2,1.2,4.1H38.4c-0.2-0.7-0.4-1.4-0.6-2.1c-0.1-0.7-0.2-1.5-0.3-2.2c-2,2-4.3,3.4-6.9,4.2c-2.6,0.8-5.4,1.2-8.1,1.2
	c-2.1,0-4.1-0.3-6-0.8c-1.8-0.5-3.5-1.3-4.8-2.4c-1.4-1.1-2.5-2.5-3.3-4.1c-0.7-1.7-1.1-3.7-1.1-6c0-2.5,0.4-4.6,1.3-6.2
	c0.9-1.7,2.1-3,3.5-4c1.4-1,3.1-1.7,4.8-2.2c1.8-0.5,3.7-0.9,5.5-1.2c1.8-0.3,3.7-0.5,5.4-0.7c1.8-0.2,3.4-0.4,4.8-0.8
	c1.4-0.3,2.5-0.8,3.3-1.5c0.8-0.7,1.2-1.7,1.1-2.9c0-1.3-0.2-2.4-0.7-3.1c-0.4-0.8-1-1.4-1.7-1.8c-0.7-0.5-1.5-0.7-2.5-0.9
	c-0.9-0.2-1.9-0.3-3-0.3c-2.4,0-4.3,0.5-5.7,1.6s-2.2,2.8-2.4,5.2H8.7z M37,27.3c-0.5,0.5-1.2,0.8-2,1.1c-0.7,0.2-1.6,0.4-2.5,0.6
	c-0.9,0.2-1.8,0.3-2.8,0.4c-1,0.1-2,0.3-2.9,0.4c-0.9,0.2-1.8,0.4-2.8,0.7c-0.9,0.3-1.6,0.7-2.3,1.2c-0.6,0.5-1.2,1.1-1.6,1.8
	c-0.4,0.7-0.6,1.7-0.6,2.9c0,1.1,0.2,2,0.6,2.8s1,1.4,1.6,1.8c0.7,0.4,1.5,0.7,2.4,0.9c0.9,0.2,1.9,0.3,2.9,0.3
	c2.4,0,4.3-0.4,5.6-1.2c1.3-0.8,2.3-1.8,2.9-2.9c0.6-1.2,1-2.3,1.1-3.5c0.2-1.2,0.3-2.1,0.3-2.8V27.3z"/>
</svg>
