<?xml version="1.0" encoding="utf-8"?>
<!-- Generator: Adobe Illustrator 24.0.2, SVG Export Plug-In . SVG Version: 6.00 Build 0)  -->
<svg version="1.1" id="Layer_1" xmlns="http://www.w3.org/2000/svg" xmlns:xlink="http://www.w3.org/1999/xlink" x="0px" y="0px"
	 viewBox="0 0 56.9 53.2" style="enable-background:new 0 0 56.9 53.2;" xml:space="preserve">
<style type="text/css">
	.st0{fill:none;}
	.st1{fill:#A9B3AF;}
</style>
<rect x="0" y="0.2" class="st0" width="56.8" height="53.1"/>
<g id="fpWHAo_2_">
	<g>
		<path class="st1" d="M2.9,21.6C11.7,5.8,32.3,0.1,49.3,8.9c1.2,0.6,2.2,2.6,2.4,4.1c0.3,2.6-0.2,5.3-0.4,8.4
			c-3.3-1.6-6.3-4-9.7-4.6C36.5,16,31,15.6,25.8,16.3c-5.8,0.7-9,4.8-8.9,10.8c0.1,6.1,3.9,9.2,9.5,10.6c6.8,1.6,14.4,0.3,24.4-4.2
			c0.2,0.3,0.6,0.6,0.6,0.9C51.7,45,51.6,45.1,41,47.2c-2.4,0.5-4.8,1.1-7.2,1.6c-2.5,0-4.9,0-7.4,0C16,46.5,6.5,43.1,2.9,31.5
			C2.9,28.2,2.9,24.9,2.9,21.6z"/>
	</g>
</g>
</svg>
