<?xml version="1.0" encoding="utf-8"?>
<!-- Generator: Adobe Illustrator 24.0.2, SVG Export Plug-In . SVG Version: 6.00 Build 0)  -->
<svg version="1.1" id="Layer_1" xmlns="http://www.w3.org/2000/svg" xmlns:xlink="http://www.w3.org/1999/xlink" x="0px" y="0px"
	 viewBox="0 0 56.9 53.2" style="enable-background:new 0 0 56.9 53.2;" xml:space="preserve">
<style type="text/css">
	.st0{fill:none;}
	.st1{fill:#A9B3AF;}
</style>
<rect x="0" y="0.2" class="st0" width="56.8" height="53.1"/>
<g id="cMV278_2_">
	<g>
		<path class="st1" d="M7.3,45.3c0.3-2.1,0.6-4.2,0.9-6.3c0.1-0.8,0.2-1.5,0.3-2.3c0.1-0.7,0.4-1,1.1-1c0.9,0.1,1.8,0.1,2.7,0
			c0.3,0,0.8-0.3,0.8-0.6c0.2-0.8,0.2-1.6,0.3-2.6c-1.5,0-2.9,0-4.4,0c0.3-2.6,0.6-5.1,1-7.6c0.7-5.4,1.4-10.8,2.1-16.2
			c0.1-0.6,0.2-1.2,0.4-1.8c0.4-1.1,1.3-1.9,2.5-2c1.3-0.1,2.4,0.2,3.1,1.4c0.4,0.6,0.6,1.2,0.9,1.9c2.9,8.3,5.8,16.7,8.8,25
			c0.1,0.4,0.3,0.8,0.6,1.5c0.2-0.6,0.4-1,0.6-1.4c2.9-8.4,5.8-16.8,8.8-25.2c0.5-1.5,1.2-2.9,3.1-3.2c1.9-0.2,3.3,0.7,3.6,2.6
			c0.5,3.1,0.9,6.3,1.3,9.4c0.6,4.8,1.3,9.7,1.9,14.5c0,0.3,0.1,0.6,0.1,1c-1.4,0-2.8,0-4.4,0c0.2,1.2,0.3,2.2,0.5,3.3
			c1.5,0,2.9,0,4.4,0c0.3,2.2,0.6,4.3,0.9,6.4c0.1,1.1,0.3,2.2,0.4,3.3c0.2,1.8-0.7,3.2-2.1,3.4c-1.6,0.2-2.8-0.8-3.1-2.6
			c-0.4-2.8-0.7-5.6-1.1-8.5c-0.1-0.8-0.4-1.1-1.2-1.1c-2.6,0.1-5.2,0-7.9,0c-0.8,0-1.1,0.3-1.3,1c-0.3,1.1-0.7,2.2-1.2,3.3
			c-0.5,1.4-1.6,2.2-3.1,2.2c-1.6,0-2.6-0.8-3.2-2.2c-0.4-1.1-0.8-2.2-1.2-3.4c-0.2-0.6-0.5-0.9-1.1-0.9c-2.7,0-5.4,0-8.1,0
			c-0.7,0-1,0.2-1,0.9c-0.3,2.9-0.7,5.7-1.1,8.6c-0.3,2.1-2.1,3.3-3.8,2.5c-0.7-0.3-1.1-1.2-1.7-1.9C7.3,46.4,7.3,45.9,7.3,45.3z
			 M40.9,13.6c0.1,0.9,0.2,1.4,0.3,1.9c0.7,5.1,1.3,10.3,2,15.4c0,0.2,0.3,0.6,0.5,0.6c1,0.1,1.9,0,3,0c0-0.3,0-0.6,0-0.8
			c-0.7-5.3-1.4-10.6-2.1-15.9c-0.3-2.4-0.7-4.8-1.1-7.2c-0.2-0.9-0.7-1.6-1.7-1.7c-1.1-0.1-2,0.2-2.5,1.2c-0.3,0.5-0.5,1.1-0.7,1.6
			c-3.1,9-6.2,17.9-9.4,26.9c-0.1,0.3-0.5,0.6-0.7,0.9c-0.3-0.3-0.6-0.5-0.7-0.9c-1.8-5-3.5-10-5.3-15c-1.4-4-2.8-8-4.2-12
			c-0.1-0.3-0.2-0.6-0.4-0.9c-0.6-1.4-1.6-2-2.8-1.8c-1.1,0.2-1.7,1-1.9,2.5c-0.8,5.9-1.6,11.8-2.4,17.8c-0.2,1.8-0.4,3.6-0.7,5.5
			c1.1,0,2,0.1,2.9,0c0.3,0,0.6-0.4,0.7-0.7c0.6-4.1,1.1-8.2,1.6-12.2c0.2-1.6,0.4-3.2,0.6-4.6c0.9-0.3,1.1,0.1,1.3,0.7
			c1.7,4.9,3.3,9.7,5,14.5c0.4,1.1,0.7,2.2,1.2,3.4c-0.5,0-0.9,0-1.3,0c-2.2,0-4.4,0-6.7,0c-0.3,0-0.9,0.2-0.9,0.5
			c-0.2,0.9-0.2,1.8-0.3,2.8c0.5,0,0.9,0,1.3,0c2.6,0,5.2,0,7.9,0c0.9,0,1.4,0.2,1.6,1.1c0.3,1.2,0.7,2.3,1.2,3.4
			c0.4,1.1,1.1,1.9,2.4,1.9c1.3,0,2-0.8,2.4-1.9c0.4-1.2,0.9-2.4,1.2-3.6c0.2-0.8,0.6-1,1.4-1c2.7,0.1,5.4,0.1,8.1,0.1
			c0.4,0,0.8,0,1.1-0.1c0.2-3.1,0.1-3.2-2.9-3.2c-0.5,0-1,0-1.5,0c-1.5,0-3.1,0-4.6,0c0-0.2,0-0.3,0-0.4c2-6,4.1-11.9,6.2-17.8
			C39.9,14.1,40.4,14,40.9,13.6z M21.9,31.6c-1.8-5.2-3.5-10.2-5.2-15.2c-0.1,0-0.2,0-0.3,0c-0.6,5-1.3,10.1-1.9,15.2
			C17,31.6,19.4,31.6,21.9,31.6z M42.3,31.6c-0.6-5.2-1.3-10.2-1.9-15.2c-0.1,0-0.2,0-0.3,0c-1.7,5.1-3.5,10.1-5.3,15.3
			C37.4,31.6,39.8,31.6,42.3,31.6z M43.9,37c0.4,3.1,0.8,6.1,1.2,9.2c0.2,1.3,0.9,1.9,2,1.8c0.9-0.1,1.4-0.8,1.3-2.1
			c-0.2-2.1-0.4-4.3-0.7-6.4c-0.4-2.9-0.4-2.9-3.4-2.6C44.2,36.9,44.2,36.9,43.9,37z M9.4,36.9c-0.4,3-0.8,6-1.1,9
			c-0.1,1.3,0.4,2,1.4,2.1c1.1,0.1,1.8-0.5,2-1.8c0.3-2.2,0.6-4.4,0.9-6.6c0.1-0.9,0.2-1.8,0.3-2.7C11.7,36.9,10.6,36.9,9.4,36.9z"
			/>
	</g>
</g>
</svg>
