<?xml version="1.0" encoding="utf-8"?>
<!-- Generator: Adobe Illustrator 24.0.2, SVG Export Plug-In . SVG Version: 6.00 Build 0)  -->
<svg version="1.1" id="Layer_1" xmlns="http://www.w3.org/2000/svg" xmlns:xlink="http://www.w3.org/1999/xlink" x="0px" y="0px"
	 viewBox="0 0 141.5 78.1" style="enable-background:new 0 0 141.5 78.1;" xml:space="preserve">
<style type="text/css">
	.st0{fill:#23344C;}
	.st1{fill:#23344C;stroke:#23344C;stroke-linecap:round;stroke-linejoin:round;stroke-miterlimit:10;}
</style>
<g>
	<path class="st0" d="M28.4,57.1h8.3V32.9l0,0l0,0c0-8.8-7.1-16-16-16l0,0L16.6,21v-4.1H8.3L0,25.2h8.3v31.9h8.3V25.2h4.1l0,0
		c4.2,0,7.7,3.4,7.7,7.7l0,0C28.4,32.9,28.4,57.1,28.4,57.1z"/>
	<polygon class="st0" points="104.3,18.5 104.3,18.5 95.5,30.2 86.6,18.5 86.6,18.5 75,17 90.3,37 75,57.1 86.6,55.5 95.5,43.9 
		104.3,55.5 116,57.1 100.7,37 116,17 	"/>
	<path class="st0" d="M132.9,41.2v-16h8.3V17h-8.3V8.7V0.4h-8.3v8.3V17h-8.3l8.3,8.3v15.9l0,0l0,0v0.1c0,8.8,7.2,15.9,16,15.9v-8.3
		C136.3,48.8,132.9,45.4,132.9,41.2L132.9,41.2L132.9,41.2z"/>
	<path class="st0" d="M59.8,57.1h8.3l-8.3-8.3l0,0c-4.2,0-7.7-3.4-7.7-7.7l0,0h15.3l8.3-8.3l0,0c0-8.8-7.1-16-16-16l0,0l0,0
		c-8.8,0-16,7.1-16,16l0,0l0,0l0,0v8.3l0,0l0,0l0,0C43.9,50,51,57.1,59.8,57.1z M52.2,32.9c0-4.2,3.4-7.7,7.7-7.7l0,0l0,0
		c4.2,0,7.7,3.4,7.7,7.7l0,0H52.2L52.2,32.9z"/>
	<path class="st1" d="M43.2,68.3c-0.1,0-0.2,0-0.2,0c-0.1,0-0.1,0.1-0.2,0.2l-3.3,7.8l-3.3-7.8c0-0.1-0.1-0.1-0.2-0.2
		c-0.1,0-0.2,0-0.2,0c-0.1,0-0.1,0.1-0.2,0.2c0,0.1,0,0.2,0,0.2l3.6,8.5l0,0l0,0c0,0.1,0.1,0.1,0.2,0.2h0.1c0,0,0.1,0,0.2,0l0,0
		c0.1,0,0.2-0.1,0.2-0.3l3.6-8.4c0-0.1,0-0.2,0-0.2C43.3,68.4,43.3,68.3,43.2,68.3z"/>
	<path class="st1" d="M51.1,68.8c0.1,0,0.2,0,0.2-0.1c0.1-0.1,0.1-0.1,0.1-0.2s0-0.2-0.1-0.2c-0.1-0.1-0.1-0.1-0.2-0.1h-4.7
		c-0.1,0-0.2,0-0.2,0.1c-0.1,0.1-0.1,0.1-0.1,0.2v8.6c0,0.1,0,0.2,0.1,0.2c0.1,0.1,0.1,0.1,0.2,0.1h4.8c0.1,0,0.2,0,0.2-0.1
		c0.1-0.1,0.1-0.1,0.1-0.2s0-0.2-0.1-0.2c-0.1-0.1-0.1-0.1-0.2-0.1h-4.4v-3.6h3.9c0.1,0,0.2,0,0.2-0.1C51,73,51,73,51,72.9
		s0-0.2-0.1-0.2c-0.1-0.1-0.1-0.1-0.2-0.1h-3.9V69h4.3V68.8z"/>
	<path class="st1" d="M60.3,68.3c-0.1,0-0.2,0-0.2,0.1c-0.1,0-0.1,0.1-0.1,0.2v7.5l-5.6-7.7c0-0.1-0.1-0.1-0.2-0.1
		c-0.1,0-0.2,0-0.3,0.1s-0.1,0.2-0.1,0.3v8.4c0,0.1,0,0.2,0.1,0.2c0.1,0.1,0.1,0.1,0.2,0.1c0.1,0,0.2,0,0.2-0.1
		c0.1-0.1,0.1-0.1,0.1-0.2v-7.5l5.5,7.7l0.1,0.1c0.1,0.1,0.1,0.1,0.2,0.1c0.1,0,0.2,0,0.2-0.1c0.1-0.1,0.1-0.1,0.1-0.2v-8.5
		c0-0.1,0-0.2-0.1-0.2C60.5,68.3,60.4,68.3,60.3,68.3z"/>
	<path class="st1" d="M69.8,68.2h-6.2c-0.1,0-0.2,0-0.2,0.1c-0.1,0.1-0.1,0.1-0.1,0.2s0,0.2,0.1,0.2c0.1,0.1,0.1,0.1,0.2,0.1h2.8V77
		c0,0.1,0,0.2,0.1,0.2c0.1,0.1,0.1,0.1,0.2,0.1s0.2,0,0.2-0.1C67,77.1,67,77.1,67,77v-8.2h2.8c0.1,0,0.2,0,0.2-0.1
		c0.1-0.1,0.1-0.1,0.1-0.2s0-0.2-0.1-0.2C69.9,68.2,69.8,68.2,69.8,68.2z"/>
	<path class="st1" d="M79.6,68.2c-0.1,0-0.2,0-0.2,0.1c-0.1,0.1-0.1,0.1-0.1,0.2v5.2c0,0.9-0.3,1.6-0.9,2.2s-1.3,0.9-2.2,0.9
		c-0.8,0-1.6-0.3-2.2-0.9s-0.9-1.3-0.9-2.2v-5.2c0-0.1,0-0.2-0.1-0.2c-0.1-0.1-0.1-0.1-0.2-0.1s-0.2,0-0.2,0.1
		c-0.1,0.1-0.1,0.1-0.1,0.2v5.2c0,1,0.4,1.9,1.1,2.6s1.6,1.1,2.6,1.1s1.9-0.4,2.6-1.1s1.1-1.6,1.1-2.6v-5.2c0-0.1,0-0.2-0.1-0.2
		C79.8,68.2,79.7,68.2,79.6,68.2z"/>
	<path class="st1" d="M88.7,76.6c-0.2-0.2-0.2-0.5-0.2-1.1s-0.1-1.1-0.4-1.4c-0.2-0.3-0.5-0.6-0.9-0.8L87,73.2
		c0.5-0.2,0.8-0.5,1.1-1c0.3-0.4,0.4-0.9,0.4-1.4c0-0.7-0.3-1.3-0.8-1.9c-0.5-0.5-1.1-0.8-1.9-0.8h-2.6c-0.1,0-0.1,0-0.2,0.1
		c0,0.1,0,0.2,0,0.3v8.6c0,0.1,0,0.2,0.1,0.2c0.1,0.1,0.1,0.1,0.2,0.1s0.2,0,0.2-0.1c0.1-0.1,0.1-0.1,0.1-0.2v-3.6h2.2l0,0
		c0.4,0.1,0.7,0.2,1.1,0.5c0.5,0.4,0.7,0.8,0.7,1.4c0,1.3,0.3,1.9,0.8,1.9l0,0h0.1l0,0C89,77.2,89,77,89,76.8
		C89,76.7,88.8,76.6,88.7,76.6z M86,72.8h-2.3v-4H86c0.5,0,1,0.2,1.4,0.6s0.6,0.9,0.6,1.4s-0.2,1-0.6,1.4C87,72.6,86.5,72.8,86,72.8
		z"/>
	<path class="st1" d="M96.5,68.8c0.1,0,0.2,0,0.2-0.1c0.1-0.1,0.1-0.1,0.1-0.2s0-0.2-0.1-0.2c-0.1-0.1-0.1-0.1-0.2-0.1h-4.7
		c-0.1,0-0.2,0-0.2,0.1c-0.1,0.1-0.1,0.1-0.1,0.2v8.6c0,0.1,0,0.2,0.1,0.2c0.1,0.1,0.1,0.1,0.2,0.1h4.8c0.1,0,0.2,0,0.2-0.1
		c0.1-0.1,0.1-0.1,0.1-0.2s0-0.2-0.1-0.2c-0.1-0.1-0.1-0.1-0.2-0.1h-4.4v-3.6h3.9c0.1,0,0.2,0,0.2-0.1c0.1-0.1,0.1-0.1,0.1-0.2
		s0-0.2-0.1-0.2s-0.1-0.1-0.2-0.1h-3.9V69h4.3V68.8z"/>
	<path class="st1" d="M104.6,73.1c-0.6-0.4-1.3-0.7-2.3-0.8l0,0c-1.8-0.3-2.6-0.9-2.7-1.8c0-0.5,0.2-0.9,0.7-1.3s1.1-0.6,1.9-0.6
		c0.3,0,0.6,0.1,1,0.2c0.3,0.1,0.6,0.2,0.8,0.3c0.2,0.1,0.5,0.3,0.8,0.5c0.2,0.1,0.3,0.1,0.4-0.1s0.1-0.3-0.1-0.4
		c-0.3-0.2-0.6-0.4-0.8-0.5c-0.2-0.1-0.5-0.2-0.9-0.4c-0.4-0.1-0.8-0.2-1.1-0.2c-0.9,0-1.6,0.2-2.2,0.7s-0.9,1-0.9,1.7
		c0,1.2,1,2,3.1,2.4l0,0c1.9,0.4,2.9,1,2.9,2c0,0.5-0.3,1-0.8,1.4s-1.2,0.6-2,0.6c-1,0-2-0.4-3-1.2c-0.1-0.1-0.1-0.1-0.2-0.1
		s-0.1,0-0.2,0.1s-0.1,0.3,0,0.4c1.1,0.9,2.2,1.3,3.4,1.3c0.9,0,1.7-0.2,2.4-0.7c0.7-0.5,1-1.1,1-1.8
		C105.6,74.1,105.3,73.5,104.6,73.1z"/>
</g>
</svg>
