<?xml version="1.0" encoding="utf-8"?>
<!-- Generator: Adobe Illustrator 24.0.2, SVG Export Plug-In . SVG Version: 6.00 Build 0)  -->
<svg version="1.1" id="Layer_1" xmlns="http://www.w3.org/2000/svg" xmlns:xlink="http://www.w3.org/1999/xlink" x="0px" y="0px"
	 viewBox="0 0 56.9 53.2" style="enable-background:new 0 0 56.9 53.2;" xml:space="preserve">
<style type="text/css">
	.st0{fill:none;}
	.st1{fill:#A9B3AF;}
</style>
<rect x="0" y="0.2" class="st0" width="56.8" height="53.1"/>
<path class="st1" d="M13.9,15.5c-0.8-0.4-1.4-0.7-1.8-0.9c1.4-1.5,2.7-3.2,4.3-4.5c1.4-1.1,3.1-1.8,4.7-2.6c0.7-0.3,1.4-0.6,2.2-1
	C23.7,9,25.6,8,27.2,7.9c1.8-0.2,3.5-0.6,5.3-0.6c1,0,2.1,0.7,3.4,1.2c-0.2,0.1-0.5,0.3-0.4,0.2c4,3.2,8,6.6,11.8,9.6
	c-0.1,0-0.7,0-1.3-0.1c0.9,1.3,1.6,2.4,2.5,3.6c-0.4,0.1-0.8,0.2-1.2,0.3c0.6,0.9,1.2,1.8,1.9,2.7c-0.1,0.1-0.2,0.2-0.3,0.3
	c-0.4-0.3-0.9-0.6-1.4-1c0,0.2-0.1,0.5-0.1,0.6c1.2,1.7,2.6,3.4,3.7,5.1c0.9,1.4,2,2.9,2.4,4.5c0.5,2,2.1,4,0.7,6.5
	c-0.7-0.7-1.4-1.3-2-1.9c-0.1,0.1-0.2,0.1-0.3,0.2c0.7,1.2,1.5,2.4,2.4,3.9c-0.7-0.4-1-0.5-1.9-1c1,1.4,1.6,2.4,2.3,3.4
	c-0.4-0.1-0.7-0.1-1.3-0.2c0.1,0.4,0.2,0.7,0.3,0.9c-1,0.3-2.1,0.8-3.1,0.9c-6.7,0.4-13.4,0.6-20,0.9c-7.7,0.3-15.3,0.5-23,0.6
	c-1.2,0-2.5-0.9-3.7-1.4c0.2-0.6,0.6-1.4,1-2.5c-1,0.3-1.9,0.6-2.8,0.9c0.8-1,1.6-2,2.5-3.1c-0.1-0.1-0.2-0.2-0.3-0.3
	c-0.8,0.6-1.6,1.2-2.3,1.8c-0.1-0.1-0.3-0.3-0.4-0.4c1.5-1.4,3-2.7,4.6-4.1c0-0.1-0.1-0.1-0.1-0.2c-0.8,0.4-1.5,0.8-2.9,1.6
	c1.5-2.3,2.7-4.1,3.8-5.9c0-0.1-0.1-0.2-0.1-0.3c-1.2,0.8-2.5,1.7-3.8,2.6c0.7-1.5,1.3-2.8,1.9-4.1c1-2.2,3-4.6,2.8-6.7
	C7.2,23.8,9.5,23,10,21.1C10.6,19.1,12.4,17.5,13.9,15.5z M28,17.7c0-2.1-1.9-4-4.1-4c-2.2,0-4.2,1.9-4.3,4.1c0,2.2,1.9,4,4.1,4
	C26.1,21.7,28,19.8,28,17.7z M30.1,17.6c-0.1,1.7,0.9,2.9,2.4,3.1c1.5,0.1,3.5-1.4,3.5-3c0-1.8-1.3-2.5-2.8-2.8
	C31.8,14.6,30.3,16,30.1,17.6z"/>
</svg>
