<?xml version="1.0" encoding="utf-8"?>
<!-- Generator: Adobe Illustrator 24.0.2, SVG Export Plug-In . SVG Version: 6.00 Build 0)  -->
<svg version="1.1" id="Layer_1" xmlns="http://www.w3.org/2000/svg" xmlns:xlink="http://www.w3.org/1999/xlink" x="0px" y="0px"
	 viewBox="0 0 56.9 49.5" style="enable-background:new 0 0 56.9 49.5;" xml:space="preserve">
<style type="text/css">
	.st0{fill:#A9B3AF;}
	.st1{fill:none;}
</style>
<g id="Out_line_1_">
	<path class="st0" d="M52,13.5h-6c0.7-1.6,1.2-3.3,1.2-4.8c0-4.4-3.6-8-8-8s-8,3.6-8,8c0,1.5,0.5,3.2,1.2,4.8H5.6
		c-0.4,0-0.8,0.4-0.8,0.8v33.6c0,0.4,0.4,0.8,0.8,0.8H52c0.4,0,0.8-0.4,0.8-0.8V14.3C52.8,13.9,52.4,13.5,52,13.5z M39.3,39.5
		c1.3,2.7,3.2,5,5.4,6.9l0.8,0.7h-2.4c-3.1-2.8-5.3-6.3-6.6-10.3l1.6-0.2C38.4,37.6,38.8,38.6,39.3,39.5z M17.2,44.3
		c-0.2-0.3-0.5-0.4-0.8-0.4c-0.4,0-0.8,0-1.1-0.1c-0.3-0.1-0.5,0-0.7,0.2c-1,1-2,2-2.8,3.1h-2c1-1.4,2.2-2.7,3.4-3.9
		c0.3-0.3,0.3-0.6,0.1-1c-0.5-1-0.5-2.2,0.1-3.2c0.2-0.3,0.2-0.7-0.1-0.9c-1.5-1.8-3.2-3.3-5-4.6c-0.6-0.4-1.2-0.8-1.8-1.1v-1.8
		c0.9,0.5,1.8,1.1,2.7,1.7c2.1,1.5,3.9,3.2,5.5,5.1c0.2,0.2,0.5,0.3,0.8,0.3c1-0.2,2.1,0.1,2.8,0.8c0.3,0.2,0.7,0.3,1,0.1
		c1.4-0.8,2.8-1.5,4.3-2.2c0,0.6,0.1,1.1,0.1,1.7c-1.4,0.6-2.7,1.3-4,2.1c-0.2,0.1-0.4,0.4-0.4,0.7c0,0.7-0.2,1.3-0.6,1.8
		c-0.2,0.3-0.2,0.6-0.1,0.9l2,3.7h-1.8L17.2,44.3z M16.9,47.1h-3.2c0.5-0.6,1-1.1,1.6-1.6c0.2,0,0.5,0.1,0.7,0L16.9,47.1z
		 M23.3,31.4c0,1.1,0,2.2,0.1,3.2c-1.6,0.6-3.1,1.4-4.6,2.2C18,36.3,17,35.9,16,35.9c-0.2,0-0.3,0-0.5,0c-1.6-1.9-3.5-3.6-5.5-5.1
		c-1.2-0.8-2.4-1.5-3.6-2.2V20l0.9,0.1c2.2,0.2,4,1.8,4.6,3.9c1.3,4.4,5.3,7.4,9.9,7.4c0.2,0,0.5,0,0.7,0L23.3,31.4z M23.3,28.7
		c0,0.4,0,0.7,0,1.1l-0.9,0.1c-4.1,0.3-7.8-2.3-8.9-6.3c-0.8-2.8-3.2-4.8-6-5.1l-1.1-0.1v-1.6L7.6,17c3.5,0.4,6.4,2.8,7.4,6.2
		c0.9,3,3.6,5.1,6.8,5.1c0.2,0,0.3,0,0.5,0l1-0.1C23.3,28.4,23.3,28.6,23.3,28.7L23.3,28.7z M20.2,43.1c0.3-0.6,0.5-1.2,0.6-1.8
		c0.9-0.6,1.9-1.1,2.9-1.5c0.2,2.5,0.4,4.9,0.7,7.4h-1.9L20.2,43.1z M25.2,38.5c-0.1-1.1-0.1-2.3-0.2-3.4c-0.1-1.5-0.1-3.1-0.1-4.6
		c0-0.6,0-1.2,0-1.8c0-0.4,0-0.9,0-1.4c0.1-4.1,0.3-8.2,0.7-12.2h1.6c-0.4,3.8-0.6,7.6-0.7,11.4c0,0.7,0,1.4,0,2.2
		c0,0.5,0,0.9,0,1.4c0,1.4,0,2.7,0.1,4.1c0,1.1,0.1,2.2,0.1,3.3c0.2,3.2,0.5,6.4,0.9,9.6H26C25.6,44.3,25.3,41.4,25.2,38.5
		L25.2,38.5z M28.1,33.2c0-0.8,0-1.7,0-2.5c0.7-0.3,1.3-0.7,1.9-1.1c1-0.8,2.5-0.6,3.2,0.4c0.3,0.4,0.5,0.8,0.5,1.3
		c0,0.4,0.1,0.7,0.1,1.1l-1.6,0.2C30.9,32.6,29.5,32.9,28.1,33.2L28.1,33.2z M35.4,32.1c0-0.3-0.1-0.7-0.1-1c-0.1-2.2-2-3.8-4.2-3.6
		c-0.8,0.1-1.6,0.3-2.2,0.8c-0.3,0.2-0.6,0.4-0.9,0.6c0,0,0-0.1,0-0.1c0-0.6,0-1.2,0-1.8c1.9-1.4,4.4-1.5,6.4-0.2
		c1.4,1,2.3,2.5,2.4,4.2c0,0.3,0,0.6,0.1,0.9L35.4,32.1z M28.3,38.1c1.4-0.4,2.9-0.7,4.4-0.8l2.1-0.2c1.2,3.8,3.2,7.3,5.9,10.1H29.2
		C28.8,44.1,28.5,41.1,28.3,38.1z M32.6,35.7c-1.5,0.2-2.9,0.4-4.3,0.8c0-0.5,0-1.1-0.1-1.6c1.4-0.3,2.8-0.6,4.2-0.7l18.8-2v1.6
		L32.6,35.7z M39.2,2.3c3.5,0,6.4,2.9,6.4,6.4c0,4.3-4.7,10.3-6.4,12.4c-1-1.3-2-2.6-2.9-3.9c-2.3-3.4-3.5-6.3-3.5-8.5
		C32.8,5.2,35.7,2.3,39.2,2.3z M38.6,22.9c0.3,0.3,0.8,0.4,1.1,0.1c0,0,0,0,0.1-0.1c0.2-0.2,3.3-3.7,5.4-7.7h6v15.3l-12.6,1.4
		c0-0.3-0.1-0.6-0.1-0.9c-0.2-2.2-1.3-4.2-3.2-5.4c-2.2-1.4-4.9-1.6-7.2-0.4c0.1-3.3,0.3-6.6,0.7-9.9h4.3
		C35.3,19.2,38.4,22.7,38.6,22.9z M24,15.1c-0.4,3.8-0.6,7.7-0.7,11.5l-1.1,0.1c-2.6,0.2-4.9-1.5-5.6-3.9c-1.1-4-4.6-6.9-8.7-7.4
		l-1.4-0.2v-0.1H24z M6.4,34.2c0.3,0.2,0.6,0.4,0.8,0.6c1.6,1.1,3.1,2.5,4.4,4c-0.5,1.2-0.6,2.5-0.1,3.7c-1.4,1.4-2.7,3-3.8,4.7H6.4
		V34.2z M48,47.1l-2.2-1.9c-2.1-1.8-3.8-4-5-6.4c-0.4-0.7-0.7-1.5-1-2.3l11.5-1.2v11.9H48z"/>
	<path class="st0" d="M39.2,12.7c2.2,0,4-1.8,4-4s-1.8-4-4-4s-4,1.8-4,4C35.2,10.9,37,12.7,39.2,12.7z M39.2,6.3
		c1.3,0,2.4,1.1,2.4,2.4s-1.1,2.4-2.4,2.4s-2.4-1.1-2.4-2.4C36.8,7.4,37.9,6.3,39.2,6.3z"/>
	<circle class="st0" cx="16" cy="40.7" r="0.8"/>
</g>
<rect x="0" y="0" class="st1" width="56.8" height="49.3"/>
</svg>
