<?xml version="1.0" encoding="utf-8"?>
<!-- Generator: Adobe Illustrator 24.0.2, SVG Export Plug-In . SVG Version: 6.00 Build 0)  -->
<svg version="1.1" id="Layer_1" xmlns="http://www.w3.org/2000/svg" xmlns:xlink="http://www.w3.org/1999/xlink" x="0px" y="0px"
	 viewBox="0 0 46 42" style="enable-background:new 0 0 46 42;" xml:space="preserve">
<style type="text/css">
	.st0{fill:#A9B3AF;}
	.st1{fill:none;}
</style>
<g>
	<g>
		<g>
			<path class="st0" d="M43,3.4H23.4c-2.1,0-3.8,1.7-3.8,3.8V11h-4.4c-2.1,0-3.8,1.7-3.8,3.8v23.4c0,1.7,1.4,3.2,3.2,3.2h20.9
				c0.3,0,0.6-0.3,0.6-0.6v-2.3l1.9-1.9l2.1,2.1c0.1,0.1,0.3,0.2,0.4,0.2c0.1,0,0.2,0,0.2,0c0.2-0.1,0.4-0.3,0.4-0.6v-4.4H43
				c0.3,0,0.6-0.3,0.6-0.6v-5.1V4C43.7,3.6,43.4,3.4,43,3.4z M20.9,7.2c0-1.4,1.1-2.5,2.5-2.5H24v22.8h-1.3c-0.7,0-1.4,0.2-1.9,0.6
				V7.2z M12.6,14.8c0-1.4,1.1-2.5,2.5-2.5h0.6V35h-1.3c-0.7,0-1.4,0.2-1.9,0.6V14.8z M34.8,38.2v1.9H14.5c-1,0-1.9-0.9-1.9-1.9
				s0.9-1.9,1.9-1.9h20.3L34.8,38.2L34.8,38.2z M34.8,35H17.1V12.2h2.5v18.4c0,1.7,1.4,3.2,3.2,3.2h12V35z M39.9,36.7l-1.5-1.5
				C38.3,35.1,38.1,35,38,35c-0.2,0-0.3,0.1-0.4,0.2l-1.5,1.5v-1v-2.5v-1.9h3.8L39.9,36.7L39.9,36.7z M42.4,32.5h-1.3v-1.9
				c0-0.3-0.3-0.6-0.6-0.6h-5.1c-0.3,0-0.6,0.3-0.6,0.6v1.9h-12c-1,0-1.9-0.9-1.9-1.9c0-1,0.9-1.9,1.9-1.9h19.6V32.5z M42.4,27.4
				H25.3V4.6h17.1V27.4z"/>
		</g>
	</g>
</g>
<rect class="st1" width="46" height="42"/>
</svg>
