<?xml version="1.0" encoding="utf-8"?>
<!-- Generator: Adobe Illustrator 24.0.2, SVG Export Plug-In . SVG Version: 6.00 Build 0)  -->
<svg version="1.1" id="Layer_1" xmlns="http://www.w3.org/2000/svg" xmlns:xlink="http://www.w3.org/1999/xlink" x="0px" y="0px"
	 viewBox="0 0 56.9 53.2" style="enable-background:new 0 0 56.9 53.2;" xml:space="preserve">
<style type="text/css">
	.st0{fill:none;}
	.st1{fill:#A9B3AF;}
	.st2{fill:#ECF0EB;}
</style>
<rect x="0" y="0.2" class="st0" width="56.8" height="53.1"/>
<g>
	<path class="st1" d="M8.1,18.9c0,1.6,0,3.3,0,4.9c-0.1,5.7,1.3,11,4.3,15.8c3.7,5.9,8.7,10.2,15.6,12.1c0.4,0.1,0.8,0.1,1.2,0
		c4.1-1.1,7.6-3.2,10.7-6.1c5.8-5.5,8.9-12.3,9.2-20.3c0.2-4.6,0-9.1,0-13.7c0-0.6-0.2-1-0.8-1.2C42,7.6,35.6,4.8,29.3,2
		c-0.4-0.2-0.9-0.2-1.2,0c-6.4,2.8-12.8,5.7-19.2,8.5c-0.6,0.2-0.8,0.6-0.8,1.2C8.1,14.1,8.1,16.5,8.1,18.9z"/>
	<path class="st1" d="M8.1,18.9c0-2.4,0-4.9,0-7.3c0-0.6,0.2-0.9,0.8-1.2C15.2,7.6,21.6,4.8,28,1.9c0.4-0.2,0.9-0.1,1.2,0
		c6.4,2.8,12.7,5.7,19.1,8.5c0.6,0.3,0.8,0.6,0.8,1.2c0,4.6,0.1,9.1,0,13.7c-0.3,8-3.4,14.8-9.2,20.3c-3,2.9-6.6,5-10.7,6.1
		c-0.4,0.1-0.8,0.1-1.2,0c-6.8-1.9-11.9-6.2-15.6-12.1c-3-4.8-4.4-10.1-4.3-15.8C8.1,22.2,8.1,20.6,8.1,18.9z M24,37.7
		c6-5.8,12-11.7,18.1-17.7c-1.2-1.1-2.3-2.1-3.4-3.1c-4.8,4.7-9.7,9.6-14.7,14.5c-1.8-1.8-3.7-3.7-5.4-5.4c-1.1,1-2.2,2.1-3.3,3.1
		C18.2,32,21.2,35,24,37.7z"/>
	<path class="st2" d="M24,37.7c-2.8-2.7-5.8-5.6-8.8-8.5c1.1-1.1,2.2-2.1,3.3-3.1c1.7,1.7,3.6,3.6,5.4,5.4c5-4.9,9.9-9.8,14.7-14.5
		c1.2,1.1,2.3,2.1,3.4,3.1C36,25.9,29.9,31.8,24,37.7z"/>
</g>
</svg>
