<?xml version="1.0" encoding="utf-8"?>
<!-- Generator: Adobe Illustrator 24.0.2, SVG Export Plug-In . SVG Version: 6.00 Build 0)  -->
<svg version="1.1" id="Layer_1" xmlns="http://www.w3.org/2000/svg" xmlns:xlink="http://www.w3.org/1999/xlink" x="0px" y="0px"
	 viewBox="0 0 56.9 49.5" style="enable-background:new 0 0 56.9 49.5;" xml:space="preserve">
<style type="text/css">
	.st0{fill:#A9B3AF;}
	.st1{fill:none;}
</style>
<g>
	<path class="st0" d="M50.9,38.3c0-0.5-0.4-0.9-0.9-0.9h-0.9v-2.7c0-0.5-0.4-0.9-0.9-0.9h-0.9v-0.9c0-1.5-1.2-2.7-2.7-2.7h-8.9
		c-1.5,0-2.7,1.2-2.7,2.7v0.9h-0.9c-0.5,0-0.9,0.4-0.9,0.9v2.7h-0.9c-0.5,0-0.9,0.4-0.9,0.9c0,0.5,0.4,0.9,0.9,0.9h5.8
		c0.5,0,0.9-0.4,0.9-0.9c0-0.5-0.4-0.9-0.9-0.9h-3.1v-1.8h2.7c0.5,0,0.9-0.4,0.9-0.9c0-0.5-0.4-0.9-0.9-0.9H35v-0.9
		c0-0.5,0.4-0.9,0.9-0.9h8.9c0.5,0,0.9,0.4,0.9,0.9v0.9h-0.9c-0.5,0-0.9,0.4-0.9,0.9c0,0.5,0.4,0.9,0.9,0.9h2.7v1.8h-3.1
		c-0.5,0-0.9,0.4-0.9,0.9c0,0.5,0.4,0.9,0.9,0.9H50C50.5,39.1,50.9,38.7,50.9,38.3z"/>
	<path class="st0" d="M6.8,29c-1.2,0.8-1.5,2.5-0.7,3.7c0.8,1.2,2.5,1.5,3.7,0.7c0,0,0,0,0,0l13.2-8.9c0.4-0.3,0.5-0.8,0.2-1.2
		l-0.5-0.7l2.9-2l2,2.9L26.9,24c-0.4,0.3-0.5,0.8-0.2,1.2l2,2.9c0.3,0.4,0.8,0.5,1.2,0.2l10.3-6.9c0.4-0.3,0.5-0.8,0.2-1.2l-2-2.9
		c-0.3-0.4-0.8-0.5-1.2-0.2l-0.7,0.5l-5-7.3l0.7-0.5c0.4-0.3,0.5-0.8,0.2-1.2l-2-2.9c-0.3-0.4-0.8-0.5-1.2-0.2l-10.3,6.9
		c-0.4,0.3-0.5,0.8-0.2,1.2l2,2.9c0.3,0.4,0.8,0.5,1.2,0.2l0.7-0.5l2,2.9l-2.9,2l-0.5-0.7c-0.3-0.4-0.8-0.5-1.2-0.2L6.8,29L6.8,29z
		 M30.4,8.7c-0.1,0.1-8,5.4-8.8,5.9l-1-1.5l8.8-5.9L30.4,8.7z M28.6,24.9c9.7-6.6,8.7-5.9,8.8-5.9l1,1.5l-8.8,5.9L28.6,24.9z
		 M29.1,22.5c-1.7-2.6-3.4-5-5-7.3l5.9-4l5,7.3L29.1,22.5L29.1,22.5z M7.5,31.7c-0.3-0.4-0.2-1,0.2-1.2L20.2,22l1,1.5L8.7,31.9
		C8.3,32.2,7.8,32.1,7.5,31.7L7.5,31.7z"/>
	<path class="st0" d="M50.9,27.6c0-0.5-0.4-0.9-0.9-0.9h-5.3c-0.5,0-0.9,0.4-0.9,0.9s0.4,0.9,0.9,0.9H50
		C50.5,28.5,50.9,28.1,50.9,27.6z"/>
	<path class="st0" d="M44.3,23.3c-0.4,0.2-0.6,0.8-0.4,1.2c0.2,0.4,0.8,0.6,1.2,0.4l3.5-1.8c0.4-0.2,0.6-0.8,0.4-1.2
		c-0.2-0.4-0.8-0.6-1.2-0.4L44.3,23.3L44.3,23.3z"/>
	<circle class="st0" cx="40.3" cy="38.3" r="0.9"/>
</g>
<rect x="0" y="0" class="st1" width="56.8" height="49.3"/>
</svg>
