<?xml version="1.0" encoding="utf-8"?>
<!-- Generator: Adobe Illustrator 24.0.2, SVG Export Plug-In . SVG Version: 6.00 Build 0)  -->
<svg version="1.1" id="Layer_1" xmlns="http://www.w3.org/2000/svg" xmlns:xlink="http://www.w3.org/1999/xlink" x="0px" y="0px"
	 viewBox="0 0 56.9 49.5" style="enable-background:new 0 0 56.9 49.5;" xml:space="preserve">
<style type="text/css">
	.st0{fill:#A9B3AF;}
	.st1{fill:none;}
</style>
<g>
	<path class="st0" d="M27.7,22.7h1.6c0.4,0,0.8,0.4,0.8,0.8c0,0.4-0.4,0.8-0.8,0.8l-3.2,0v1.6l1.6,0v1.6h1.6v-1.6h0
		c1.3,0,2.4-1.1,2.4-2.4c0-1.3-1.1-2.4-2.4-2.4h-1.6c-0.4,0-0.8-0.4-0.8-0.8s0.4-0.8,0.8-0.8h3.2v-1.6h-1.6v-1.6h-1.6v1.6
		c-1.3,0-2.4,1.1-2.4,2.4S26.4,22.7,27.7,22.7z"/>
	<path class="st0" d="M5.3,36.3h4.8c0.4,0,0.8-0.4,0.8-0.8h0.5c2.2,1.6,4.8,2.4,7.5,2.4h4v2.4c-0.4,0-0.8,0.4-0.8,0.8v7.2
		c0,0.4,0.4,0.8,0.8,0.8h11.2c0.4,0,0.8-0.4,0.8-0.8v-7.2c0-0.4-0.4-0.8-0.8-0.8h-0.2c0.4-0.8,0.6-1.6,0.8-2.4h4.2
		c2.6,0,5.1-0.8,7.2-2.2c0.1,0.4,0.4,0.6,0.8,0.6h4.8c0.4,0,0.8-0.4,0.8-0.8v-9.6c0-0.4-0.4-0.8-0.8-0.8h-4.8
		c-0.4,0-0.8,0.4-0.8,0.8v1.6h-0.6c-2.2,0-4.3,0.8-5.9,2.2c-0.2-0.8-0.8-1.4-1.5-1.8v-8.4c0-3.6-2.4-6.8-5.9-7.7l0.1-0.1
		c0.7-1,1-2.2,1-3.4c0-0.4-0.4-0.8-0.8-0.8h-8c-0.4,0-0.8,0.4-0.8,0.8c0,1.2,0.4,2.4,1,3.4l0.1,0.1c-3.5,1-5.9,4.1-5.9,7.7v7.9
		c0,0.2-0.1,0.5-0.4,0.6c-0.5,0.2-0.9,0.6-1.1,1.1c-1.5-1.1-3.3-1.6-5.2-1.6h-1.4v-1.6c0-0.4-0.4-0.8-0.8-0.8H5.3
		c-0.4,0-0.8,0.4-0.8,0.8v9.6C4.5,36,4.8,36.3,5.3,36.3z M47.7,26.7h3.2v8h-3.2V26.7z M33.3,47.5h-9.6v-5.6h9.6V47.5z M24.5,40.3
		v-7.2h5.6c-1,1.1-1.6,2.6-1.6,4.2v0.9h1.6v-0.9c0-1.2,0.5-2.4,1.4-3.3c0.2-0.2,0.2-0.4,0.2-0.6v-2.7c0-0.4,0.4-0.8,0.8-0.8
		c0.4,0,0.8,0.4,0.8,0.8v5.1c0,1.6-0.4,3.1-1.2,4.5H24.5z M45.5,29.1h0.6v4.8h0c-0.2,0-0.3,0.1-0.5,0.2c-1.9,1.4-4.3,2.2-6.7,2.2h-4
		c0-0.2,0-0.3,0-0.5l4.8-1.1v-1.6h-4.1c-0.4,0-0.7-0.4-0.7-0.8v0c0-0.2,0.1-0.4,0.2-0.6c0.1-0.1,0.3-0.2,0.4-0.2h4.1v0
		c0.2,0,0.4-0.1,0.6-0.2C41.6,29.9,43.5,29.1,45.5,29.1z M26,10.8c-0.3-0.5-0.6-1.1-0.7-1.7h6.3c-0.1,0.6-0.3,1.2-0.7,1.7l-0.5,0.7
		c-0.1,0-0.2,0-0.4,0h-3.2c-0.1,0-0.2,0-0.4,0L26,10.8z M19.2,29.5c0.8-0.4,1.2-1.2,1.2-2v-7.9c0-3.5,2.9-6.4,6.4-6.4h3.2
		c3.5,0,6.4,2.9,6.4,6.4v8h-1.6v1.6h1.6c0.6,0,1.1,0.3,1.4,0.8h-2.3c-0.3,0-0.5,0-0.8,0.1c-0.4-1.3-1.7-2-3-1.6
		c-1,0.3-1.7,1.2-1.7,2.3v0.8h-6.5c-0.3-1-1.2-1.6-2.3-1.6h0l-2.4,0C18.9,29.7,19,29.5,19.2,29.5z M12.3,29.1c2,0,3.8,0.8,5.2,2.2
		c0.2,0.2,0.4,0.2,0.6,0.2h0l3.2,0c0.4,0,0.8,0.4,0.8,0.8c0,0.4-0.4,0.8-0.8,0.8h-4v1.6l5.6,0v1.6h-4c-2.4,0-4.8-0.8-6.7-2.2
		c-0.1-0.1-0.3-0.2-0.5-0.2h-0.8v-4.8H12.3z M6.1,26.7h3.2v8H6.1V26.7z"/>
	<rect x="14.9" y="13.9" class="st0" width="2.4" height="1.6"/>
	<rect x="39.7" y="13.9" class="st0" width="2.4" height="1.6"/>
	<rect x="36" y="5.2" transform="matrix(0.7071 -0.7071 0.7071 0.7071 6.6901 28.0864)" class="st0" width="2.4" height="1.6"/>
	<rect x="27.7" y="1.1" class="st0" width="1.6" height="2.4"/>
	<rect x="18.9" y="4.8" transform="matrix(0.7071 -0.7071 0.7071 0.7071 1.5534 15.6856)" class="st0" width="1.6" height="2.4"/>
</g>
<rect x="0" y="0" class="st1" width="56.8" height="49.3"/>
</svg>
