<?xml version="1.0" encoding="utf-8"?>
<!-- Generator: Adobe Illustrator 24.0.2, SVG Export Plug-In . SVG Version: 6.00 Build 0)  -->
<svg version="1.1" id="Layer_1" xmlns="http://www.w3.org/2000/svg" xmlns:xlink="http://www.w3.org/1999/xlink" x="0px" y="0px"
	 viewBox="0 0 46 42" style="enable-background:new 0 0 46 42;" xml:space="preserve">
<style type="text/css">
	.st0{fill:#A9B3AF;}
	.st1{fill:none;}
</style>
<g>
	<path class="st0" d="M45.7,33.7c0-0.5-0.4-0.9-0.9-0.9h-0.9v-2.7c0-0.5-0.4-0.9-0.9-0.9h-0.9v-0.9c0-1.5-1.2-2.7-2.7-2.7h-8.9
		c-1.5,0-2.7,1.2-2.7,2.7v0.9h-0.9c-0.5,0-0.9,0.4-0.9,0.9v2.7h-0.9c-0.5,0-0.9,0.4-0.9,0.9c0,0.5,0.4,0.9,0.9,0.9h5.8
		c0.5,0,0.9-0.4,0.9-0.9c0-0.5-0.4-0.9-0.9-0.9H28v-1.8h2.7c0.5,0,0.9-0.4,0.9-0.9s-0.4-0.9-0.9-0.9h-0.9v-0.9
		c0-0.5,0.4-0.9,0.9-0.9h8.9c0.5,0,0.9,0.4,0.9,0.9v0.9h-0.9c-0.5,0-0.9,0.4-0.9,0.9s0.4,0.9,0.9,0.9h2.7v1.8h-3.1
		c-0.5,0-0.9,0.4-0.9,0.9c0,0.5,0.4,0.9,0.9,0.9h5.8C45.3,34.6,45.7,34.2,45.7,33.7z"/>
	<path class="st0" d="M1.6,24.5c-1.2,0.8-1.5,2.5-0.7,3.7c0.8,1.2,2.5,1.5,3.7,0.7c0,0,0,0,0,0l13.2-8.9c0.4-0.3,0.5-0.8,0.2-1.2
		L17.5,18l2.9-2l2,2.9l-0.7,0.5c-0.4,0.3-0.5,0.8-0.2,1.2l2,2.9c0.3,0.4,0.8,0.5,1.2,0.2l10.3-6.9c0.4-0.3,0.5-0.8,0.2-1.2l-2-2.9
		c-0.3-0.4-0.8-0.5-1.2-0.2L31.2,13l-5-7.3L27,5.1c0.4-0.3,0.5-0.8,0.2-1.2l-2-2.9c-0.3-0.4-0.8-0.5-1.2-0.2L13.7,7.7
		c-0.4,0.3-0.5,0.8-0.2,1.2l2,2.9c0.3,0.4,0.8,0.5,1.2,0.2l0.7-0.5l2,2.9l-2.9,2L16,15.8c-0.3-0.4-0.8-0.5-1.2-0.2L1.6,24.5
		L1.6,24.5z M25.2,4.2c-0.1,0.1-8,5.4-8.8,5.9l-1-1.5l8.8-5.9L25.2,4.2z M23.4,20.4c9.7-6.6,8.7-5.9,8.8-5.9l1,1.5l-8.8,5.9
		L23.4,20.4z M23.9,17.9c-1.7-2.6-3.4-5-5-7.3l5.9-4l5,7.3L23.9,17.9L23.9,17.9z M2.3,27.1c-0.3-0.4-0.2-1,0.2-1.2L15,17.5l1,1.5
		L3.5,27.4C3.1,27.7,2.6,27.6,2.3,27.1L2.3,27.1z"/>
	<path class="st0" d="M45.7,23.1c0-0.5-0.4-0.9-0.9-0.9h-5.3c-0.5,0-0.9,0.4-0.9,0.9c0,0.5,0.4,0.9,0.9,0.9h5.3
		C45.3,24,45.7,23.6,45.7,23.1z"/>
	<path class="st0" d="M39.1,18.8c-0.4,0.2-0.6,0.8-0.4,1.2c0.2,0.4,0.8,0.6,1.2,0.4l3.5-1.8c0.4-0.2,0.6-0.8,0.4-1.2
		c-0.2-0.4-0.8-0.6-1.2-0.4L39.1,18.8L39.1,18.8z"/>
	<circle class="st0" cx="35.1" cy="33.7" r="0.9"/>
</g>
<rect class="st1" width="46" height="42"/>
</svg>
