<?xml version="1.0" encoding="utf-8"?>
<!-- Generator: Adobe Illustrator 24.0.2, SVG Export Plug-In . SVG Version: 6.00 Build 0)  -->
<svg version="1.1" id="Layer_1" xmlns="http://www.w3.org/2000/svg" xmlns:xlink="http://www.w3.org/1999/xlink" x="0px" y="0px"
	 viewBox="0 0 56.9 49.5" style="enable-background:new 0 0 56.9 49.5;" xml:space="preserve">
<style type="text/css">
	.st0{fill:#A9B3AF;}
	.st1{fill:none;}
</style>
<g>
	<path class="st0" d="M28.2,11.9c-5.2,0-9.4,4.2-9.4,9.4c0,4.8,7.8,16.2,8.6,17.5l0.8,1.1l0.8-1.1c0.9-1.3,8.6-12.6,8.6-17.5
		C37.6,16.1,33.4,11.9,28.2,11.9z M28.2,36.6c-2.6-4-7.5-12-7.5-15.3c0-4.2,3.4-7.5,7.5-7.5s7.5,3.4,7.5,7.5
		C35.7,24.5,30.9,32.6,28.2,36.6z"/>
	<path class="st0" d="M28.2,16.6c-2.6,0-4.7,2.1-4.7,4.7s2.1,4.7,4.7,4.7s4.7-2.1,4.7-4.7C32.9,18.7,30.8,16.6,28.2,16.6z
		 M28.2,24.1c-1.6,0-2.8-1.3-2.8-2.8s1.3-2.8,2.8-2.8c1.6,0,2.8,1.3,2.8,2.8C31,22.9,29.8,24.1,28.2,24.1z"/>
</g>
<rect x="0" y="0" class="st1" width="56.8" height="49.3"/>
</svg>
