<?xml version="1.0" encoding="utf-8"?>
<!-- Generator: Adobe Illustrator 24.0.2, SVG Export Plug-In . SVG Version: 6.00 Build 0)  -->
<svg version="1.1" id="Layer_1" xmlns="http://www.w3.org/2000/svg" xmlns:xlink="http://www.w3.org/1999/xlink" x="0px" y="0px"
	 viewBox="0 0 56.9 49.5" style="enable-background:new 0 0 56.9 49.5;" xml:space="preserve">
<style type="text/css">
	.st0{fill:#A9B3AF;}
	.st1{fill:none;}
</style>
<g>
	<g>
		<g>
			<path class="st0" d="M47.7,31.7H19.2c0.3-0.4,0.5-0.9,0.5-1.5c0-1.7-2-3-2.2-3.1c-0.3-0.2-0.6-0.2-0.9,0
				c-0.2,0.1-2.2,1.4-2.2,3.1c0,0.6,0.2,1.1,0.5,1.5h-6c-1.4,0-2.6,1.2-2.6,2.6v9c0,0.5,0.4,0.9,0.9,0.9h17.3c0.5,0,0.9-0.4,0.9-0.9
				s-0.4-0.9-0.9-0.9H8v-4.5h40.6v4.5H32.1c-0.5,0-0.9,0.4-0.9,0.9s0.4,0.9,0.9,0.9h17.3c0.5,0,0.9-0.4,0.9-0.9v-9
				C50.3,32.8,49.1,31.7,47.7,31.7L47.7,31.7z M17,28.9c0.4,0.3,0.9,0.9,0.9,1.3c0,0.4-0.5,0.9-0.9,1.3c-0.4-0.3-0.9-0.9-0.9-1.3
				C16.1,29.8,16.6,29.3,17,28.9z M8,36.2v-1.9c0-0.5,0.4-0.9,0.9-0.9h38.9c0.5,0,0.9,0.4,0.9,0.9v1.9H8z"/>
			<path class="st0" d="M28.8,42.6c-0.3-0.2-0.7-0.2-1,0.1c-0.3,0.2-0.4,0.6-0.3,0.9c0.1,0.4,0.4,0.6,0.8,0.6c0.4,0,0.7-0.2,0.8-0.6
				C29.2,43.2,29.1,42.8,28.8,42.6z"/>
			<path class="st0" d="M30.5,26.2c0.1,0.2,0.3,0.3,0.5,0.4c0.1,0,0.1,0,0.2,0c0.2,0,0.3,0,0.5-0.1l12.3-8.2c0.6,0,1.2-0.1,1.7-0.5
				c0.5-0.4,0.9-0.9,1.1-1.5c0.1-0.2,0.2-0.4,0.1-0.7c0.1-0.6-0.1-1.3-0.5-1.8c-0.3-0.5-0.8-0.9-1.4-1.1l-6.3-9.5
				c0-0.6-0.1-1.2-0.5-1.7c-0.4-0.5-0.9-0.9-1.5-1.1c-0.2-0.1-0.4-0.2-0.7-0.1c-0.6-0.1-1.3,0.1-1.8,0.5C33.9,1,33.6,1.5,33.3,2
				L21,10.2c-0.4,0.3-0.5,0.8-0.2,1.2L30.5,26.2z M34.6,3.3c0.2-0.1,0.3-0.3,0.4-0.5c0.1-0.3,0.2-0.5,0.5-0.7
				c0.2-0.2,0.5-0.2,0.8-0.2c0,0,0,0,0,0c0,0,0,0,0,0C36.6,2,36.9,2.2,37,2.4c0.2,0.2,0.2,0.5,0.2,0.8c0,0.2,0,0.4,0.1,0.6l6.6,10
				c0.1,0.2,0.3,0.3,0.5,0.4c0.3,0.1,0.5,0.2,0.7,0.5c0.2,0.2,0.2,0.5,0.2,0.8c0,0,0,0,0,0c0,0,0,0,0,0c-0.1,0.3-0.2,0.5-0.5,0.7
				c-0.2,0.2-0.5,0.2-0.8,0.2c-0.2,0-0.4,0-0.6,0.1l-11.9,7.9l-8.8-13.3L34.6,3.3z"/>
			<path class="st0" d="M32.2,14.4c-0.1,0.2-0.1,0.4-0.2,0.6c-0.5,2.4,1.8,4.7,1.9,4.8c0.2,0.2,0.4,0.3,0.6,0.3c0.1,0,0.2,0,0.3-0.1
				c0.1-0.1,3.1-1.3,3.6-3.7c0.5-2.2-1.5-4.4-1.8-4.8c-0.2-0.4-1.5-3.1-3.7-3.5c-2.4-0.5-4.7,1.8-4.8,1.9c-0.3,0.2-0.3,0.6-0.2,0.9
				c0.1,0.1,1.3,3.1,3.7,3.6C31.8,14.4,32,14.4,32.2,14.4L32.2,14.4z M36.8,15.9c-0.2,1-1.3,1.8-2,2.2c-0.5-0.7-1.2-1.8-1-2.8
				c0.2-1,1.3-1.8,2-2.2C36.3,13.8,37,14.9,36.8,15.9L36.8,15.9z M29.8,10.7c0.6-0.5,1.8-1.2,2.8-1h0c1,0.2,1.8,1.3,2.2,2
				c-0.7,0.5-1.8,1.2-2.8,1C31,12.5,30.2,11.4,29.8,10.7z"/>
			<path class="st0" d="M20.2,22.6c0.1,0.1,0.3,0.1,0.4,0.1s0.3,0,0.4-0.1c0.2-0.1,2.2-1.4,2.2-3.1c0-1.7-2-3-2.2-3.1
				c-0.3-0.2-0.6-0.2-0.9,0C20,16.5,18,17.7,18,19.5C18,21.2,20,22.4,20.2,22.6L20.2,22.6z M20.6,18.2c0.4,0.3,0.9,0.9,0.9,1.3
				c0,0.4-0.5,0.9-0.9,1.3c-0.4-0.3-0.9-0.9-0.9-1.3C19.7,19.1,20.2,18.5,20.6,18.2z"/>
			<path class="st0" d="M25.6,23.5c-0.2,0.1-2.2,1.4-2.2,3.1c0,1.7,2,3,2.2,3.1c0.1,0.1,0.3,0.1,0.4,0.1c0.2,0,0.3,0,0.4-0.1
				c0.2-0.1,2.2-1.4,2.2-3.1c0-1.7-2-3-2.2-3.1C26.2,23.4,25.9,23.4,25.6,23.5L25.6,23.5z M26.1,27.9c-0.4-0.3-0.9-0.9-0.9-1.3
				c0-0.4,0.5-0.9,0.9-1.3c0.4,0.3,0.9,0.9,0.9,1.3C27,27,26.5,27.6,26.1,27.9z"/>
		</g>
	</g>
</g>
<rect x="0" y="0" class="st1" width="56.8" height="49.3"/>
</svg>
