<?xml version="1.0" encoding="utf-8"?>
<!-- Generator: Adobe Illustrator 24.0.2, SVG Export Plug-In . SVG Version: 6.00 Build 0)  -->
<svg version="1.1" id="Layer_1" xmlns="http://www.w3.org/2000/svg" xmlns:xlink="http://www.w3.org/1999/xlink" x="0px" y="0px"
	 viewBox="0 0 46 42" style="enable-background:new 0 0 46 42;" xml:space="preserve">
<style type="text/css">
	.st0{fill:none;}
	.st1{fill:#A9B3AF;}
</style>
<rect y="0" class="st0" width="46" height="42"/>
<path class="st1" d="M35.7,22.6c0-0.1,0-0.3,0.1-0.4l5.5-5.3c0.6-0.6,0.8-1.5,0.6-2.3c-0.3-0.8-1-1.4-1.8-1.5l-7.5-1.1
	c-0.1,0-0.3-0.1-0.3-0.2l-3.4-6.8c-0.4-0.8-1.2-1.3-2-1.3s-1.7,0.5-2,1.3l-3.4,6.8c-0.1,0.1-0.2,0.2-0.3,0.2L13.5,13
	c-0.9,0.1-1.6,0.7-1.8,1.5s0,1.7,0.6,2.3l5.5,5.3c0.1,0.1,0.2,0.3,0.1,0.4l-1.3,7.5c-0.1,0.9,0.2,1.7,0.9,2.2
	c0.7,0.5,1.6,0.6,2.4,0.2l6.7-3.5c0.1-0.1,0.3-0.1,0.4,0l6.7,3.5c0.3,0.2,0.7,0.3,1.1,0.3c0.5,0,0.9-0.1,1.3-0.4
	c0.7-0.5,1.1-1.4,0.9-2.2L35.7,22.6z M35,30.8c-0.1,0-0.3,0.2-0.5,0l-6.7-3.5c-0.3-0.2-0.7-0.3-1.1-0.3s-0.7,0.1-1.1,0.3L19,30.9
	c-0.2,0.1-0.4,0-0.5,0c-0.1,0-0.2-0.2-0.2-0.4l1.3-7.5c0.1-0.7-0.1-1.5-0.7-2l-5.5-5.3c-0.2-0.2-0.1-0.4-0.1-0.5
	c0-0.1,0.1-0.3,0.4-0.3l7.5-1.1c0.7-0.1,1.4-0.6,1.7-1.2l3.4-6.8c0.1-0.2,0.3-0.3,0.4-0.3c0.1,0,0.3,0,0.4,0.3v0l3.4,6.8
	c0.3,0.7,1,1.1,1.7,1.2l7.5,1.1c0.3,0,0.3,0.2,0.4,0.3s0.1,0.3-0.1,0.5l-5.5,5.3c-0.5,0.5-0.8,1.3-0.7,2l1.3,7.5
	C35.2,30.6,35.1,30.8,35,30.8z M35.9,7.8c0.3,0,0.6-0.1,0.7-0.4l1-1.3c0.3-0.4,0.2-1-0.2-1.3c-0.4-0.3-1-0.2-1.3,0.2l-1,1.3
	c-0.3,0.4-0.2,1,0.2,1.3C35.5,7.7,35.7,7.8,35.9,7.8z M16.9,7.4c0.2,0.2,0.5,0.4,0.7,0.4c0.2,0,0.4-0.1,0.5-0.2
	c0.4-0.3,0.5-0.9,0.2-1.3l-1-1.3c-0.3-0.4-0.9-0.5-1.3-0.2c-0.4,0.3-0.5,0.9-0.2,1.3L16.9,7.4z M11.7,23.3l-1.6,0.5
	C9.7,24,9.4,24.5,9.6,25c0.1,0.4,0.5,0.6,0.9,0.6c0.1,0,0.2,0,0.3,0l1.6-0.5c0.5-0.2,0.7-0.7,0.6-1.1C12.7,23.5,12.2,23.2,11.7,23.3
	z M26.7,34c-0.5,0-0.9,0.4-0.9,0.9v1.6c0,0.5,0.4,0.9,0.9,0.9s0.9-0.4,0.9-0.9v-1.6C27.7,34.4,27.3,34,26.7,34z M43.3,23.9l-1.6-0.5
	c-0.5-0.2-1,0.1-1.1,0.6c-0.2,0.5,0.1,1,0.6,1.1l1.6,0.5c0.1,0,0.2,0,0.3,0c0.4,0,0.7-0.2,0.9-0.6C44.1,24.5,43.8,24,43.3,23.9z"/>
</svg>
