<?xml version="1.0" encoding="utf-8"?>
<!-- Generator: Adobe Illustrator 24.0.2, SVG Export Plug-In . SVG Version: 6.00 Build 0)  -->
<svg version="1.1" id="Layer_1" xmlns="http://www.w3.org/2000/svg" xmlns:xlink="http://www.w3.org/1999/xlink" x="0px" y="0px"
	 viewBox="0 0 46 42" style="enable-background:new 0 0 46 42;" xml:space="preserve">
<style type="text/css">
	.st0{fill:#A9B3AF;}
	.st1{fill:none;}
</style>
<g>
	<g>
		<path class="st0" d="M42.8,28.8L28.5,7.6l0.1-0.1L34.4,8c0.3,0,0.6-0.2,0.8-0.5c0.1-0.3,0.1-0.7-0.2-0.9l-5.9-5.4
			c-0.2-0.2-0.6-0.3-0.9-0.1l-6,3.2c-0.4,0.2-0.5,0.6-0.3,1l7.7,16.1l-14.5-0.5c-0.3,0-0.5,0.1-0.7,0.3L13.2,23H3.7
			c-0.3,0-0.6,0.2-0.7,0.4c-0.1,0.3-0.1,0.6,0,0.8L7.5,31l-1.2,1.7c-0.2,0.2-0.2,0.5-0.1,0.7c0.1,0.2,0.3,0.4,0.6,0.5l3.1,0.7
			l3.4,5.2c0.1,0.2,0.4,0.4,0.7,0.4h19.4l3.5,0.8c0.4,0.1,0.7-0.1,0.9-0.4l5.2-11C43,29.3,43,29,42.8,28.8L42.8,28.8z M30.1,6l1-1
			l1.2,1.1L30.1,6z M28.5,2.7L29.9,4l-4.7,4.6l-1.6-3.3L28.5,2.7z M5.2,24.6h6.9l-3.6,5L5.2,24.6z M15.5,22.5l2.9,0.1l6.1,13.9
			L8.2,32.6L15.5,22.5z M14.3,38.6l-2.3-3.5l14.7,3.5H14.3z M38.2,35.8l-1.9-4c-0.2-0.4-0.7-0.6-1-0.4c-0.4,0.2-0.6,0.7-0.4,1
			l2.5,5.1l-0.8,1.7l-10.2-2.4l-6.2-14.3L30.4,23l1.5,3.1c0.2,0.4,0.7,0.6,1,0.4c0.4-0.2,0.6-0.7,0.4-1L26,10.2l1.4-1.4l13.9,20.6
			L38.2,35.8z"/>
		<path class="st0" d="M34.1,29.7L34.1,29.7c0.4,0,0.8-0.3,0.8-0.8c0-1-1.5-1-1.6,0C33.3,29.4,33.7,29.7,34.1,29.7z"/>
	</g>
</g>
<g>
	<path class="st0" d="M677.9,341c0-0.5-0.4-0.9-0.9-0.9h-0.9v-2.7c0-0.5-0.4-0.9-0.9-0.9h-0.9v-0.9c0-1.5-1.2-2.7-2.7-2.7h-8.9
		c-1.5,0-2.7,1.2-2.7,2.7v0.9h-0.9c-0.5,0-0.9,0.4-0.9,0.9v2.7h-0.9c-0.5,0-0.9,0.4-0.9,0.9s0.4,0.9,0.9,0.9h5.8
		c0.5,0,0.9-0.4,0.9-0.9s-0.4-0.9-0.9-0.9h-3.1v-1.8h2.7c0.5,0,0.9-0.4,0.9-0.9s-0.4-0.9-0.9-0.9h-0.9v-0.9c0-0.5,0.4-0.9,0.9-0.9
		h8.9c0.5,0,0.9,0.4,0.9,0.9v0.9h-0.9c-0.5,0-0.9,0.4-0.9,0.9s0.4,0.9,0.9,0.9h2.7v1.8h-3.1c-0.5,0-0.9,0.4-0.9,0.9s0.4,0.9,0.9,0.9
		h5.8C677.5,341.9,677.9,341.5,677.9,341z"/>
	<path class="st0" d="M633.7,331.8c-1.2,0.8-1.5,2.5-0.7,3.7c0.8,1.2,2.5,1.5,3.7,0.7c0,0,0,0,0,0l13.2-8.9c0.4-0.3,0.5-0.8,0.2-1.2
		l-0.5-0.7l2.9-2l2,2.9l-0.7,0.5c-0.4,0.3-0.5,0.8-0.2,1.2l2,2.9c0.3,0.4,0.8,0.5,1.2,0.2l10.3-6.9c0.4-0.3,0.5-0.8,0.2-1.2l-2-2.9
		c-0.3-0.4-0.8-0.5-1.2-0.2l-0.7,0.5l-5-7.3l0.7-0.5c0.4-0.3,0.5-0.8,0.2-1.2l-2-2.9c-0.3-0.4-0.8-0.5-1.2-0.2l-10.3,6.9
		c-0.4,0.3-0.5,0.8-0.2,1.2l2,2.9c0.3,0.4,0.8,0.5,1.2,0.2l0.7-0.5l2,2.9l-2.9,2l-0.5-0.7c-0.3-0.4-0.8-0.5-1.2-0.2L633.7,331.8
		L633.7,331.8z M657.4,311.5c-0.1,0.1-8,5.4-8.8,5.9l-1-1.5l8.8-5.9L657.4,311.5z M655.5,327.7c9.7-6.6,8.7-5.9,8.8-5.9l1,1.5
		l-8.8,5.9L655.5,327.7z M656,325.3c-1.7-2.6-3.4-5-5-7.3l5.9-4l5,7.3L656,325.3L656,325.3z M634.5,334.5c-0.3-0.4-0.2-1,0.2-1.2
		l12.5-8.4l1,1.5l-12.5,8.4C635.3,335,634.7,334.9,634.5,334.5L634.5,334.5z"/>
	<path class="st0" d="M677.9,330.4c0-0.5-0.4-0.9-0.9-0.9h-5.3c-0.5,0-0.9,0.4-0.9,0.9s0.4,0.9,0.9,0.9h5.3
		C677.5,331.3,677.9,330.9,677.9,330.4z"/>
	<path class="st0" d="M671.3,326.1c-0.4,0.2-0.6,0.8-0.4,1.2c0.2,0.4,0.8,0.6,1.2,0.4l3.5-1.8c0.4-0.2,0.6-0.8,0.4-1.2
		c-0.2-0.4-0.8-0.6-1.2-0.4L671.3,326.1L671.3,326.1z"/>
	<circle class="st0" cx="667.2" cy="341" r="0.9"/>
</g>
<rect class="st1" width="46" height="42"/>
</svg>
