<?xml version="1.0" encoding="utf-8"?>
<!-- Generator: Adobe Illustrator 24.0.2, SVG Export Plug-In . SVG Version: 6.00 Build 0)  -->
<svg version="1.1" id="Layer_1" xmlns="http://www.w3.org/2000/svg" xmlns:xlink="http://www.w3.org/1999/xlink" x="0px" y="0px"
	 viewBox="0 0 46 42" style="enable-background:new 0 0 46 42;" xml:space="preserve">
<style type="text/css">
	.st0{fill:#A9B3AF;}
	.st1{fill:none;}
</style>
<path class="st0" d="M4.8,8H0.2V3.8h14.3V8H9.9v12.3H4.8V8z M15.3,3.8h13.9V8h-8.8v2h8.8v4h-8.8v2.1h8.8v4.2H15.3L15.3,3.8z M30,3.8
	h8.3c5.5,0,7.4,4.1,7.4,8.2c0,5.1-2.7,8.3-8.4,8.3H30L30,3.8L30,3.8z M35.1,16.1h2c3.2,0,3.6-2.6,3.6-4.1c0-1-0.3-3.9-4-3.9H35
	L35.1,16.1z"/>
<rect class="st1" width="46" height="42"/>
</svg>
