<?xml version="1.0" encoding="utf-8"?>
<!-- Generator: Adobe Illustrator 24.0.2, SVG Export Plug-In . SVG Version: 6.00 Build 0)  -->
<svg version="1.1" id="Layer_1" xmlns="http://www.w3.org/2000/svg" xmlns:xlink="http://www.w3.org/1999/xlink" x="0px" y="0px"
	 viewBox="0 0 46 42" style="enable-background:new 0 0 46 42;" xml:space="preserve">
<style type="text/css">
	.st0{fill:#A9B3AF;}
	.st1{fill:none;}
</style>
<g>
	<g>
		<path class="st0" d="M44.6,7.3c-0.2-0.6-0.7-1-1.3-1.1c-0.6-0.1-1.2,0.1-1.6,0.5l-4.1,4.1l-2-2l4.4-4.4c0.5-0.5,0.7-1.1,0.5-1.7
			c-0.1-0.6-0.5-1.1-1.1-1.3c-3.8-1.5-8.2-0.6-11.1,2.3c-1.5,1.5-2.5,3.5-2.9,5.6c-0.1,0.4-0.2,0.7-0.2,1.2c-0.5,2.4-1,5.3-2.7,7
			L7.3,32.5c-1.9,1.9-1.9,4.9,0,6.8c0.9,0.9,2.2,1.4,3.4,1.4c1.2,0,2.4-0.5,3.4-1.4l15.1-15.1c1.7-1.7,4.6-2.3,7-2.7
			c0.4-0.1,0.8-0.2,1.2-0.2c2.1-0.4,4.1-1.4,5.6-2.9c0.5-0.5,0.6-1.1,0.4-1.6C45.3,14.1,45.8,10.5,44.6,7.3L44.6,7.3z M42.7,7.8
			c0.1-0.1,0.1-0.1,0.2-0.1c0.1,0,0.1,0.1,0.1,0.1c1,2.6,0.7,5.4-0.9,7.7l-3.6-3.6L42.7,7.8z M41.7,17.3c-1.3,1.3-2.9,2.2-4.8,2.5
			c0,0,0,0,0,0c-0.4,0.1-0.7,0.1-1.1,0.2c-2.6,0.5-5.8,1.1-7.8,3.1L12.9,38.2c-1.3,1.3-3.3,1.3-4.5,0c-1.3-1.3-1.3-3.3,0-4.5
			l15.1-15.1c2-2,2.6-5.2,3.1-7.8c0.1-0.4,0.2-0.8,0.2-1.1c0,0,0,0,0,0c0.3-1.8,1.2-3.5,2.5-4.8c1.7-1.7,3.9-2.6,6.2-2.6
			c1.1,0,2.2,0.2,3.2,0.6c0.1,0,0.2,0.1,0.2,0.2c0,0.1,0,0.2-0.1,0.3l-4.9,4.9c-0.3,0.3-0.3,0.8,0,1.1L41.7,17.3
			C41.7,17.2,41.7,17.3,41.7,17.3C41.7,17.3,41.7,17.3,41.7,17.3L41.7,17.3z"/>
		<path class="st0" d="M32.7,10.4c-0.1-0.1-0.3-0.2-0.6-0.2c-0.2,0-0.4,0.1-0.6,0.2l-2.2,2.2c-0.3,0.3-0.3,0.8,0,1.1l3.1,3.1
			c0.1,0.1,0.3,0.2,0.6,0.2c0.2,0,0.4-0.1,0.6-0.2l2.2-2.2c0.3-0.3,0.3-0.8,0-1.1L32.7,10.4z M33.1,15.2l-2-2l1.1-1.1l2,2L33.1,15.2
			z"/>
		<path class="st0" d="M11.2,35.4c-0.3-0.3-0.8-0.3-1.1,0c-0.3,0.3-0.3,0.8,0,1.1c0.2,0.2,0.4,0.2,0.6,0.2s0.4-0.1,0.6-0.2
			C11.5,36.2,11.5,35.7,11.2,35.4L11.2,35.4z"/>
		<path class="st0" d="M25.2,20.3L12.6,32.9c-0.3,0.3-0.3,0.8,0,1.1c0.2,0.2,0.4,0.2,0.6,0.2s0.4-0.1,0.6-0.2l12.6-12.6
			c0.3-0.3,0.3-0.8,0-1.1C26,20,25.5,20,25.2,20.3L25.2,20.3z"/>
	</g>
</g>
<rect class="st1" width="46" height="42"/>
</svg>
