<?xml version="1.0" encoding="utf-8"?>
<!-- Generator: Adobe Illustrator 24.0.2, SVG Export Plug-In . SVG Version: 6.00 Build 0)  -->
<svg version="1.1" id="Layer_1" xmlns="http://www.w3.org/2000/svg" xmlns:xlink="http://www.w3.org/1999/xlink" x="0px" y="0px"
	 viewBox="0 0 46 42" style="enable-background:new 0 0 46 42;" xml:space="preserve">
<style type="text/css">
	.st0{fill:#A9B3AF;}
	.st1{fill:#FFFFFF;}
	.st2{fill:none;}
</style>
<g>
	<path class="st0" d="M43.4,6.2C43,4.9,42,3.9,40.7,3.5C38.4,2.9,29,2.9,29,2.9s-9.4,0-11.7,0.6C16,3.8,15,4.9,14.6,6.2
		C14,8.5,14,13.4,14,13.4s0,4.9,0.6,7.2c0.3,1.3,1.4,2.3,2.6,2.6c2.4,0.6,11.7,0.6,11.7,0.6s9.4,0,11.7-0.6c1.3-0.3,2.3-1.4,2.6-2.6
		c0.6-2.3,0.6-7.2,0.6-7.2S44,8.5,43.4,6.2z"/>
	<path class="st1" d="M26,17.9l7.8-4.5L26,8.9V17.9z"/>
</g>
<rect class="st2" width="46" height="42"/>
</svg>
